<?xml version="1.0" encoding="utf-8"?>
<svg viewBox="0 0 500 500" xmlns="http://www.w3.org/2000/svg">
  <g transform="matrix(1.594252, 0, 0, 1.594252, -127.636864, -137.478943)" style="">
    <ellipse style="stroke: rgb(0, 0, 0); fill: rgb(101, 2, 142);" cx="236.39" cy="242.15" rx="151.23" ry="151.23"/>
    <path d="M 356.086 294.16 L 264.794 136.029 C 264.193 135.429 263.006 134.842 262.406 134.842 L 252.853 134.842 C 251.666 134.842 251.066 134.842 250.465 135.442 C 249.865 136.629 250.465 137.23 251.066 137.831 L 336.395 285.809 L 275.533 285.809 L 260.017 259.554 L 285.085 259.554 C 286.273 259.554 287.473 258.953 288.073 257.766 C 288.674 256.578 288.674 255.378 288.073 254.777 L 218.847 136.029 C 218.247 135.429 217.66 134.842 216.459 134.842 C 215.259 134.842 214.071 135.442 213.471 136.629 L 121.578 294.16 C 120.977 295.347 120.977 296.548 121.578 297.148 C 122.179 298.335 123.365 298.937 124.567 298.937 L 163.348 298.937 C 164.536 298.937 165.737 298.335 166.337 297.148 L 171.113 288.797 C 171.714 287.61 172.301 287.01 171.714 286.408 C 171.113 285.809 169.926 285.809 168.725 285.809 L 142.47 285.809 L 216.459 157.521 L 267.782 245.839 L 252.266 245.839 L 219.448 188.553 C 218.847 187.365 217.66 186.765 216.459 186.765 C 215.259 186.765 214.071 187.365 213.471 188.553 L 175.275 254.19 C 174.675 255.378 174.675 256.578 175.275 257.179 C 175.876 258.366 177.063 258.967 178.263 258.967 L 245.089 258.967 L 267.168 297.162 C 267.768 298.35 268.956 298.95 270.157 298.95 L 354.298 298.95 C 355.486 298.95 356.686 298.35 357.287 297.162 C 356.686 296.561 356.686 295.374 356.099 294.174 L 356.086 294.16 Z M 195.567 246.426 L 216.446 210.619 L 237.324 246.426 L 195.554 246.426 L 195.567 246.426 Z" style="fill: rgb(244, 244, 244);"/>
  </g>
</svg>