<svg xmlns="http://www.w3.org/2000/svg" id="a" viewBox="96.63 0 1770.17 1230.1"><defs><style>.b{fill:#416274;}</style></defs><path class="b" d="m1857.8,1194.2h0L1173.5,8.9c-4.5-4.5-13.4-8.9-17.9-8.9h-71.6c-8.9,0-13.4,0-17.9,4.5-4.5,8.9,0,13.4,4.5,17.9l639.6,1109.2h-456.2l-116.3-196.8h187.9c8.9,0,17.9-4.5,22.4-13.4,4.5-8.9,4.5-17.9,0-22.4L829.1,8.9c-4.5-4.5-8.9-8.9-17.9-8.9s-17.9,4.5-22.4,13.4L100,1194.2c-4.5,8.9-4.5,17.9,0,22.4,4.5,8.9,13.4,13.4,22.4,13.4h290.7c8.9,0,17.9-4.5,22.4-13.4l35.8-62.6c4.5-8.9,8.9-13.4,4.5-17.9-4.5-4.5-13.4-4.5-22.4-4.5h-196.8L811.2,170l384.7,662h-116.3l-246-429.4c-4.5-8.9-13.4-13.4-22.4-13.4s-17.9,4.5-22.4,13.4l-286.3,492c-4.5,8.9-4.5,17.9,0,22.4,4.5,8.9,13.4,13.4,22.4,13.4h500.9l165.5,286.3c4.5,8.9,13.4,13.4,22.4,13.4h630.7c8.9,0,17.9-4.5,22.4-13.4-4.5-4.5-4.5-13.4-8.9-22.4Zm-1203.2-357.8l156.5-268.4,156.5,268.4h-313.1Z"/></svg>